<svg viewBox="0 0 20 18" xmlns="http://www.w3.org/2000/svg">
    <path d="M20 6.49999H16.6039L13.0359 0.553344C12.8589 0.257948 12.475 0.161502 12.1784 0.339118C11.8824 0.516735 11.7865 0.900625 11.9642 1.19665L15.1462 6.49999H4.85389L8.03588 1.19661C8.2135 0.900582 8.11769 0.516693 7.82166 0.339076C7.52441 0.16146 7.14174 0.257905 6.96412 0.553302L3.39618 6.49995H0V7.74996H1.35651L2.94433 16.2198C3.11033 17.1067 3.88548 17.75 4.78761 17.75H15.2124C16.1145 17.75 16.8897 17.1067 17.0551 16.2204L18.6434 7.74996H20C20 7.74996 20 6.49999 20 6.49999ZM15.8264 15.9903C15.7715 16.2857 15.5133 16.5 15.2124 16.5H4.78761C4.48671 16.5 4.22855 16.2858 4.173 15.9898L2.62789 7.74996H17.3721L15.8264 15.9903Z"/>
</svg>
