<svg width="60" height="60" viewBox="0 0 60 60" xmlns="http://www.w3.org/2000/svg">
    <path d="M37.8557 20.5442C37.2056 20.0162 36.2744 20.0162 35.6243 20.5442L20.5432 35.6253C19.9472 36.2498 19.9472 37.2322 20.5432 37.8567L33.6237 50.9372C33.933 51.1762 34.3102 51.311 34.7009 51.3219C35.1171 51.3219 35.5221 51.1868 35.8551 50.9372L50.9362 35.8561C51.186 35.5231 51.3209 35.1181 51.3209 34.7019C51.3099 34.3112 51.1753 33.934 50.9362 33.6247L37.8557 20.5442ZM34.7011 47.6288L23.8519 36.7026L36.7017 23.8529L47.6278 34.702L34.7011 47.6288Z"/>
    <path d="M58.2688 31.3384C58.2363 31.3051 58.2033 31.2721 58.17 31.2395L33.9324 7.00196C32.7349 5.79223 31.0946 5.12507 29.3926 5.15526L10.1567 5.69399C9.51222 5.69075 8.87716 5.84952 8.31 6.15571L2.46224 0.307799C1.78227 -0.202073 0.817753 -0.064222 0.307734 0.615606C-0.102578 1.16274 -0.102578 1.91517 0.307734 2.46231L6.1555 8.31007C5.84931 8.87723 5.69054 9.51229 5.69378 10.1568L5.15519 29.3928C5.125 31.0948 5.79216 32.735 7.00189 33.9325L31.2393 58.1699C33.5857 60.5708 37.4342 60.6152 39.8353 58.2688C39.8686 58.2362 39.9016 58.2032 39.9341 58.1699L58.1699 39.9342C60.5709 37.5879 60.6153 33.7394 58.2688 31.3384ZM56.0488 37.7465C56.0378 37.7577 56.0267 37.7688 56.0155 37.7798L37.7797 56.0156C36.5416 57.1595 34.6321 57.1595 33.3938 56.0156L9.1564 31.7781C8.55316 31.1627 8.22075 30.3316 8.23312 29.4699L8.77172 10.9263L14.0809 16.2355C13.438 17.3051 13.0927 18.5271 13.0806 19.775C13.0383 23.5143 16.0354 26.5799 19.7747 26.6221C23.5141 26.6644 26.5797 23.6673 26.6219 19.928C26.6642 16.1886 23.6671 13.1231 19.9278 13.0808C19.8768 13.0802 19.8257 13.0802 19.7747 13.0808C18.5269 13.0929 17.3049 13.4382 16.2352 14.0811L10.9261 8.77178L29.5467 8.23319H29.6236C30.4287 8.27457 31.1926 8.60197 31.7781 9.15647L56.0155 33.3939C57.2267 34.5867 57.2416 36.5353 56.0488 37.7465ZM16.1584 19.7748C16.1584 17.7776 17.7775 16.1584 19.7747 16.1584C21.7848 16.158 23.4262 17.7652 23.4681 19.7748C23.4272 21.7974 21.7974 23.4273 19.7747 23.4682C17.765 23.4262 16.1579 21.7848 16.1584 19.7748Z"/>
</svg>
