<svg width="100" height="100" viewBox="0 0 100 100" xmlns="http://www.w3.org/2000/svg">
    <path d="M68.7499 31.6499L44.55 56.2998L32.1499 43.8498L25.5 50.5L45.0499 70L76.4501 39.55L68.7499 31.6499Z"/>
    <path d="M49.9999 0C22.3858 0 0 22.3858 0 49.9999C0 77.6139 22.3858 99.9998 49.9999 99.9998C77.6139 99.9998 99.9998 77.6139 99.9998 49.9999C99.9998 22.3858 77.6142 0 49.9999 0ZM49.9999 90.9499C27.3839 90.9499 9.04991 72.6159 9.04991 49.9999C9.04991 27.3839 27.3839 9.04991 49.9999 9.04991C72.6044 9.07734 90.9222 27.3951 90.9499 49.9999C90.9499 72.6161 72.6161 90.9499 49.9999 90.9499Z"/>
</svg>
