<svg width="18" height="16" viewBox="0 0 18 16" xmlns="http://www.w3.org/2000/svg">
    <path d="M17.0488 8.52388H14.0674C13.7104 8.52388 13.4375 8.25093 13.4375 7.89402C13.4375 7.53712 13.7105 7.26416 14.0674 7.26416H17.0488C17.4058 7.26416 17.6787 7.53712 17.6787 7.89402C17.6787 8.25093 17.4058 8.52388 17.0488 8.52388Z"/>
    <path d="M9.51128 8.52437H0.629868C0.272958 8.52437 0 8.25142 0 7.89451C0 7.5376 0.272958 7.26465 0.629868 7.26465L9.51128 7.26465C9.86823 7.26465 10.1411 7.5376 10.1411 7.89451C10.1412 8.25142 9.86823 8.52437 9.51128 8.52437Z"/>
    <path d="M11.7764 10.793C10.1807 10.793 8.87891 9.49124 8.87891 7.89553C8.87891 6.29982 10.1807 4.99805 11.7764 4.99805C13.3721 4.99805 14.6739 6.29982 14.6739 7.89553C14.6739 9.49124 13.3721 10.793 11.7764 10.793ZM11.7764 6.25782C10.8736 6.25782 10.1387 6.9927 10.1387 7.89553C10.1387 8.79836 10.8736 9.53323 11.7764 9.53323C12.6792 9.53323 13.4141 8.79836 13.4141 7.89553C13.4141 6.9927 12.6792 6.25782 11.7764 6.25782Z"/>
    <path d="M3.61134 13.731H0.629868C0.272958 13.731 0 13.458 0 13.1011C0 12.7441 0.272958 12.4712 0.629868 12.4712H3.61134C3.96829 12.4712 4.24121 12.7441 4.24121 13.1011C4.24121 13.458 3.96829 13.731 3.61134 13.731Z"/>
    <path d="M17.0503 13.7309H8.16893C7.81198 13.7309 7.53906 13.458 7.53906 13.1011C7.53906 12.7441 7.81202 12.4712 8.16893 12.4712H17.0503C17.4073 12.4712 17.6802 12.7441 17.6802 13.1011C17.6802 13.458 17.4073 13.7309 17.0503 13.7309Z"/>
    <path d="M5.89809 16C4.30238 16 3.00061 14.6983 3.00061 13.1026C3.00061 11.5069 4.30238 10.2051 5.89809 10.2051C7.4938 10.2051 8.79558 11.5069 8.79558 13.1026C8.79558 14.6983 7.4938 16 5.89809 16ZM5.89809 11.4649C4.99527 11.4649 4.26039 12.1997 4.26039 13.1026C4.26039 14.0054 4.99527 14.7403 5.89809 14.7403C6.80092 14.7403 7.5358 14.0054 7.5358 13.1026C7.5358 12.1997 6.80092 11.4649 5.89809 11.4649Z"/>
    <path d="M3.61134 3.52829H0.629868C0.272958 3.52829 0 3.25537 0 2.89842C0 2.54147 0.272958 2.26855 0.629868 2.26855H3.61134C3.96829 2.26855 4.24121 2.54151 4.24121 2.89842C4.24121 3.25533 3.96829 3.52829 3.61134 3.52829Z"/>
    <path d="M17.0503 3.52829L8.16893 3.52829C7.81198 3.52829 7.53906 3.25533 7.53906 2.89842C7.53906 2.54151 7.81202 2.26855 8.16893 2.26855L17.0503 2.26855C17.4073 2.26855 17.6802 2.54151 17.6802 2.89842C17.6802 3.25533 17.4073 3.52829 17.0503 3.52829Z"/>
    <path d="M5.89809 5.79496C4.30238 5.79496 3.00061 4.49319 3.00061 2.89748C3.00061 1.30177 4.30238 0 5.89809 0C7.4938 0 8.79558 1.30177 8.79558 2.89748C8.79558 4.49319 7.4938 5.79496 5.89809 5.79496ZM5.89809 1.25978C4.99527 1.25978 4.26039 1.99466 4.26039 2.89748C4.26039 3.80031 4.99527 4.53519 5.89809 4.53519C6.80092 4.53519 7.5358 3.80031 7.5358 2.89748C7.5358 1.99466 6.80092 1.25978 5.89809 1.25978Z"/>
</svg>
