<svg width="50" height="56" viewBox="0 0 50 56" xmlns="http://www.w3.org/2000/svg">
    <path d="M49.3532 16.3573L46.5478 8.64907C45.6196 6.09888 42.7897 4.77905 40.2396 5.70754L35.0813 7.58507C35.0897 7.53465 35.0983 7.48422 35.1055 7.43336C35.4438 5.05479 34.4477 2.75846 32.4416 1.29087C30.5448 -0.0967736 28.1174 -0.384867 25.9488 0.519882C23.7799 1.42474 22.277 3.35237 21.9299 5.66838L21.1929 10.4215L17.3821 7.05285C15.6213 5.49633 13.231 4.98533 10.988 5.68665C6.04963 7.22993 4.6983 13.557 8.52763 16.9938C8.59643 17.0555 8.66665 17.115 8.73752 17.1736L3.24012 19.1745C0.684351 20.1048 -0.631867 22.9263 0.298695 25.4826L3.10427 33.1908L6.59793 31.9271V51.0782C6.59793 53.7921 8.78389 56 11.4978 56C11.978 56 43.2925 56 44.3094 56C47.0232 56 49.2312 53.7922 49.2312 51.0782V26.2508C48.177 26.2508 22.1717 26.2508 22.1717 26.2508L49.3532 16.3573ZM41.3618 8.79082C42.2116 8.48151 43.1552 8.9213 43.4644 9.77136L45.1479 14.3963L29.7315 20.0074L27.4871 13.8409L41.3618 8.79082ZM25.1736 6.16276C25.35 4.98435 26.1122 4.00698 27.2118 3.54815C28.3014 3.09359 29.5334 3.22888 30.5042 3.93905C32.7086 5.55168 32.1801 8.64075 29.6661 9.55611C29.2447 9.70946 26.4975 10.7095 26.3647 10.7577L24.3473 11.4919L25.1736 6.16276ZM24.4036 14.9631L26.648 21.1295C25.5697 21.5221 24.643 21.8593 23.5647 22.2518L21.3203 16.0853L24.4036 14.9631ZM11.9666 8.81816C13.0898 8.46729 14.3046 8.71163 15.2089 9.51094L19.4614 13.2702C18.2277 13.7193 15.3104 14.7811 14.1272 15.2116C12.9361 15.6448 11.6622 15.3982 10.7191 14.5516C8.74572 12.7806 9.49789 9.58969 11.9666 8.81816ZM5.06515 28.9853L3.38176 24.3603C3.07157 23.5086 3.51005 22.5677 4.3623 22.2574L18.2371 17.2074L20.4814 23.3739L5.06515 28.9853ZM32.8252 29.5319H45.9717V51.0782C45.9717 51.9829 45.2138 52.7189 44.3092 52.7189H32.8252V29.5319ZM26.2629 29.5319H29.5659V52.7188H26.2629V29.5319ZM23.0035 29.5319V52.7188H11.4976C10.593 52.7188 9.85697 51.9828 9.85697 51.0781V30.7329L13.1564 29.5319H23.0035Z"/>
</svg>
