<svg width="50" height="50" viewBox="0 0 50 50" xmlns="http://www.w3.org/2000/svg">
    <path d="M49.7124 14.7141L39.2521 0.592804C38.9755 0.220108 38.5391 0 38.0749 0C37.6106 0 37.1738 0.220108 36.898 0.592804L26.4378 14.7141C26.1086 15.1585 26.0578 15.7509 26.3069 16.2449C26.5556 16.7389 27.0618 17.0509 27.615 17.0509H31.3801V24.131C30.6427 23.7511 29.8077 23.5352 28.9223 23.5352H26.3073C23.3368 23.5352 20.9202 25.9518 20.9202 28.9223V31.9759C20.1828 31.596 19.3474 31.3801 18.4624 31.3801H15.8474C12.8769 31.3801 10.4603 33.7971 10.4603 36.7676V39.8209C9.72252 39.4413 8.88748 39.225 8.00247 39.225H5.38712C2.41661 39.225 0 41.642 0 44.6125V48.5352C0 49.3443 0.655746 50 1.46484 50H43.3048C44.1139 50 44.7697 49.3443 44.7697 48.5352V17.0509H48.5352C49.0883 17.0509 49.5945 16.7389 49.8432 16.2449C50.0923 15.7509 50.0416 15.1585 49.7124 14.7141ZM2.92969 44.6125C2.92969 43.2575 4.03214 42.1547 5.38712 42.1547H8.00209C9.35745 42.1547 10.4599 43.2575 10.4599 44.6125V47.0703H2.92969V44.6125ZM13.3896 44.6125V36.7676C13.3896 35.4122 14.492 34.3098 15.8474 34.3098H18.4624C19.8174 34.3098 20.9198 35.4122 20.9198 36.7676V47.0703H13.3896V44.6125ZM23.8499 36.7676V28.9223C23.8499 27.5673 24.9523 26.4648 26.3073 26.4648H28.9223C30.2773 26.4648 31.3801 27.5673 31.3801 28.9223V47.0703H23.8499V36.7676ZM43.3048 14.1212C42.4957 14.1212 41.84 14.777 41.84 15.5861V47.0703H34.3098V15.5861C34.3098 14.777 33.6536 14.1212 32.8449 14.1212H30.5229L38.0749 3.9257L45.6272 14.1212H43.3048Z"/>
</svg>
