<svg width="16" height="14" viewBox="0 0 16 14" xmlns="http://www.w3.org/2000/svg" id="mailIcon">
    <path d="M14.5722 13.2859C14.9319 13.2859 15.2435 13.1671 15.5084 12.9326L10.9754 8.39941C10.8666 8.47729 10.7612 8.55302 10.6616 8.62504C10.3224 8.87497 10.0471 9.07001 9.83565 9.20976C9.62426 9.34984 9.34301 9.49261 8.99192 9.63838C8.6406 9.78432 8.31331 9.85706 8.00969 9.85706H8.0008H7.99191C7.68826 9.85706 7.36097 9.78435 7.00968 9.63838C6.65839 9.49261 6.37714 9.34984 6.16595 9.20976C5.95457 9.07001 5.67938 8.875 5.33998 8.62504C5.24539 8.5557 5.1405 8.47962 5.02709 8.39819L0.493164 12.9326C0.758061 13.1671 1.0699 13.2859 1.42953 13.2859H14.5722Z"/>
    <path d="M0.901882 5.54471C0.562678 5.31856 0.261876 5.05956 0 4.76782V11.6648L3.99542 7.66934C3.19611 7.11131 2.16624 6.40392 0.901882 5.54471Z"/>
    <path d="M15.1078 5.54471C13.8917 6.36784 12.8581 7.07646 12.0068 7.67094L16.0006 11.6649V4.76782C15.7446 5.05369 15.447 5.31252 15.1078 5.54471Z"/>
    <path d="M14.5711 0.714355H1.42848C0.969972 0.714355 0.617464 0.869186 0.370519 1.17853C0.123371 1.48802 0 1.87506 0 2.33924C0 2.71417 0.16372 3.12042 0.491014 3.5581C0.818308 3.99561 1.16658 4.33925 1.53564 4.58922C1.73797 4.73217 2.34811 5.15634 3.36607 5.86159C3.91559 6.24239 4.39348 6.57431 4.80414 6.86073C5.15418 7.10462 5.45606 7.31584 5.7053 7.49112C5.73391 7.51119 5.77891 7.54338 5.83863 7.58608C5.90297 7.6323 5.9844 7.69095 6.08485 7.76348C6.27829 7.90338 6.43898 8.01647 6.56697 8.10286C6.69479 8.18928 6.84965 8.28581 7.03132 8.393C7.21285 8.50005 7.38406 8.58054 7.54476 8.63408C7.70549 8.68759 7.85428 8.71443 7.99115 8.71443H8.00004H8.00893C8.14578 8.71443 8.2946 8.68759 8.45536 8.63408C8.61603 8.58054 8.7871 8.50022 8.96877 8.393C9.15026 8.28581 9.30492 8.18908 9.43314 8.10286C9.56113 8.01647 9.72183 7.90341 9.9153 7.76348C10.0155 7.69095 10.097 7.63227 10.1613 7.58623C10.2211 7.54335 10.266 7.51137 10.2948 7.49112C10.489 7.35601 10.7916 7.14567 11.1984 6.8632C11.9386 6.34889 13.0287 5.5919 14.4734 4.58922C14.9079 4.28575 15.2709 3.91953 15.5626 3.49108C15.8538 3.06264 15.9998 2.61323 15.9998 2.14298C15.9998 1.75009 15.8583 1.41391 15.5758 1.13391C15.293 0.854255 14.958 0.714355 14.5711 0.714355Z"/>
</svg>
