<svg width="62" height="62" viewBox="0 0 62 62" xmlns="http://www.w3.org/2000/svg">
    <path d="M54.5091 23.0079L61.645 15.872C61.9452 15.5718 62.0662 15.1364 61.9641 14.7244C61.862 14.3123 61.5515 13.9839 61.1459 13.8587L43.7689 8.49546C42.2024 3.46026 37.5466 0.000244141 32.2104 0.000244141C27.2499 0.000244141 22.8135 3.02335 20.9774 7.58374L0.849887 13.8598C0.445313 13.986 0.13604 14.3146 0.0346841 14.7262C-0.0666714 15.1377 0.0544224 15.5724 0.354129 15.8721L7.67776 23.1958L3.05876 30.8943C2.86973 31.2093 2.83401 31.593 2.9614 31.9375C3.08879 32.282 3.36573 32.55 3.71424 32.6661L10.4135 34.8991V53.5236C10.4135 54.0283 10.7267 54.4801 11.1993 54.6574C15.2955 56.1933 30.5152 61.9014 30.5969 61.9304C30.8372 62.015 31.1078 62.0265 31.3717 61.9412C31.3752 61.9399 31.3788 61.9392 31.3823 61.938L53.1792 54.6724C53.6736 54.5076 54.0073 54.0448 54.0073 53.5236V34.4004L61.1516 32.1554C61.5555 32.0284 61.8638 31.6998 61.9647 31.2886C62.0654 30.8773 61.9442 30.4433 61.6449 30.1439L54.5091 23.0079ZM44.3198 12.1096C44.3198 11.8019 44.3068 11.4949 44.2837 11.1889L58.5115 15.5804L52.4693 21.6225L42.5967 18.332C43.7147 16.4634 44.3198 14.3072 44.3198 12.1096ZM23.0469 8.95779C24.3911 5.04864 28.0737 2.42212 32.2104 2.42212C36.6668 2.42212 40.5318 5.43638 41.6094 9.75217C41.8009 10.5191 41.8979 11.3122 41.8979 12.1096C41.8979 14.3588 41.1515 16.4669 39.739 18.2069C37.8891 20.4886 35.145 21.7971 32.2104 21.7971C29.0382 21.7971 26.0628 20.2401 24.2505 17.631C23.1204 16.0076 22.5229 14.0982 22.5229 12.1096C22.5229 11.0281 22.6991 9.96771 23.0469 8.95779ZM3.48271 15.5757L20.23 10.3536C20.1459 10.9322 20.101 11.5183 20.101 12.1095C20.101 14.0592 20.5629 15.9477 21.4432 17.6516L9.52965 21.6225L3.48271 15.5757ZM5.91221 30.8459L9.7412 24.464L29.1844 30.945L25.3555 37.3269C23.2794 36.6349 8.12895 31.5846 5.91221 30.8459ZM29.7885 59.0419L12.8354 52.6845V35.7064C26.1739 40.129 25.5225 39.994 25.8939 39.994C26.3102 39.994 26.7089 39.7786 26.9325 39.406L29.7885 34.6456V59.0419ZM30.9994 28.9972L13.032 23.0082L22.8157 19.7471C25.1056 22.5622 28.5527 24.219 32.2104 24.219C35.594 24.219 38.774 22.8265 41.0614 20.3732L48.9669 23.0081L30.9994 28.9972ZM51.5854 52.6508L32.2104 59.1091V33.7255L36.5033 39.0911C36.8156 39.4814 37.3354 39.6396 37.8119 39.4899L51.5854 35.1616V52.6508V52.6508ZM37.8766 36.9311L33.0299 30.8732L52.4693 24.3935L58.5196 30.4438L37.8766 36.9311Z"/>
    <path d="M38.0901 7.6213C37.6173 7.14831 36.8505 7.14843 36.3775 7.6213L29.9682 14.0308L28.4025 12.4652C27.9297 11.9923 27.1629 11.9923 26.6899 12.4652C26.2169 12.938 26.217 13.7048 26.6899 14.1778L29.1119 16.5996C29.5848 17.0724 30.3515 17.0724 30.8245 16.5996L38.0901 9.33393C38.563 8.86106 38.563 8.09429 38.0901 7.6213Z"/>
</svg>
