<svg width="60" height="60" viewBox="0 0 60 60" xmlns="http://www.w3.org/2000/svg" id="openBoxIcon">
    <path d="M52.7507 22.2658L59.6564 15.36C59.9469 15.0695 60.064 14.6481 59.9652 14.2494C59.8664 13.8506 59.566 13.5328 59.1734 13.4117L42.357 8.22142C40.8411 3.34864 36.3354 0.000244141 31.1713 0.000244141C26.3709 0.000244141 22.0776 2.92583 20.3007 7.33911L0.822456 13.4127C0.430932 13.5348 0.131635 13.8529 0.0335495 14.2512C-0.0645365 14.6494 0.0526511 15.0701 0.34269 15.3601L7.43007 22.4475L2.96007 29.8977C2.77714 30.2025 2.74257 30.5739 2.86585 30.9073C2.98914 31.2407 3.25714 31.5 3.59441 31.6124L10.0776 33.7733V51.797C10.0776 52.2854 10.3806 52.7227 10.838 52.8942C14.8021 54.3806 29.5308 59.9046 29.6099 59.9326C29.8424 60.0145 30.1043 60.0257 30.3597 59.9431C30.3631 59.9419 30.3666 59.9412 30.37 59.94L51.4637 52.9088C51.9422 52.7493 52.2651 52.3014 52.2651 51.797V33.2907L59.1789 31.1181C59.5698 30.9953 59.8682 30.6772 59.9658 30.2793C60.0633 29.8813 59.946 29.4613 59.6563 29.1715L52.7507 22.2658ZM42.8901 11.719C42.8901 11.4212 42.8775 11.1242 42.8551 10.828L56.624 15.0778L50.7767 20.925L41.2226 17.7407C42.3045 15.9324 42.8901 13.8457 42.8901 11.719ZM22.3034 8.66884C23.6043 4.88579 27.1681 2.34399 31.1713 2.34399C35.4839 2.34399 39.2243 5.26103 40.2672 9.43759C40.4525 10.1797 40.5463 10.9473 40.5463 11.719C40.5463 13.8956 39.824 15.9358 38.4571 17.6196C36.6668 19.8277 34.0112 21.094 31.1713 21.094C28.1015 21.094 25.2221 19.5872 23.4682 17.0623C22.3745 15.4913 21.7963 13.6434 21.7963 11.719C21.7963 10.6724 21.9668 9.64618 22.3034 8.66884ZM3.37035 15.0733L19.5774 10.0197C19.496 10.5796 19.4526 11.1468 19.4526 11.7189C19.4526 13.6057 19.8995 15.4333 20.7515 17.0822L9.22222 20.925L3.37035 15.0733ZM5.72148 29.8508L9.42695 23.6748L28.2429 29.9468L24.5376 36.1228C22.5284 35.4531 7.86671 30.5658 5.72148 29.8508ZM28.8276 57.1374L12.4213 50.985V34.5546C25.3295 38.8345 24.6992 38.7039 25.0586 38.7039C25.4615 38.7039 25.8473 38.4954 26.0637 38.1348L28.8276 33.5281V57.1374ZM29.9994 28.0618L12.6116 22.266L22.0797 19.1101C24.2957 21.8344 27.6317 23.4377 31.1713 23.4377C34.4458 23.4377 37.5232 22.0902 39.7368 19.716L47.3873 22.2659L29.9994 28.0618ZM49.9213 50.9524L31.1713 57.2024V32.6375L35.3257 37.8301C35.628 38.2078 36.1311 38.3609 36.5922 38.216L49.9213 34.0274V50.9524ZM36.6548 35.7397L31.9644 29.8773L50.7767 23.6066L56.6318 29.4618L36.6548 35.7397Z"/>
    <path d="M36.8613 7.37548C36.4037 6.91775 35.6617 6.91787 35.204 7.37548L29.0013 13.5782L27.4862 12.0631C27.0286 11.6055 26.2866 11.6055 25.8289 12.0631C25.3711 12.5207 25.3712 13.2627 25.8289 13.7205L28.1727 16.0641C28.6303 16.5217 29.3724 16.5217 29.8301 16.0641L36.8613 9.03287C37.319 8.57525 37.319 7.83322 36.8613 7.37548Z"/>
</svg>
