<svg xmlns="http://www.w3.org/2000/svg" width="43" height="43" viewBox="0 0 43 43">
    <path d="M10.75,18.813c5.941,0,10.75-4.208,10.75-9.406S16.691,0,10.75,0,0,4.208,0,9.406,4.809,18.813,10.75,18.813Zm0-13.437a4.349,4.349,0,0,1,4.607,4.031,4.349,4.349,0,0,1-4.607,4.031A4.349,4.349,0,0,1,6.143,9.406,4.349,4.349,0,0,1,10.75,5.375Zm21.5,18.813c-5.941,0-10.75,4.208-10.75,9.406S26.309,43,32.25,43,43,38.792,43,33.594,38.191,24.188,32.25,24.188Zm0,13.438a4.349,4.349,0,0,1-4.607-4.031,4.349,4.349,0,0,1,4.607-4.031,4.349,4.349,0,0,1,4.607,4.031A4.349,4.349,0,0,1,32.25,37.625ZM37.654.017,40.687.008C42.549,0,43.653,1.839,42.578,3.183L7.429,42.127a2.411,2.411,0,0,1-1.881.857l-3.206.008c-1.872,0-2.966-1.839-1.891-3.175L35.773.873A2.411,2.411,0,0,1,37.654.017Z"
          fill="#eb7c00"/>
</svg>
