<svg width="58" height="58" viewBox="0 0 58 58" xmlns="http://www.w3.org/2000/svg">
    <path d="M47.4656 0C43.9767 0 40.879 1.70681 38.9608 4.32961H28.4616V1.70545C28.4616 0.767027 27.7008 0.00623047 26.7624 0.00623047H17.6593C16.7209 0.00623047 15.9601 0.767027 15.9601 1.70545V4.32961H13.1693C12.2309 4.32961 11.4701 5.09041 11.4701 6.02883C11.4701 6.96725 12.2309 7.72805 13.1693 7.72805H15.9601V10.8052H15.5626C14.6242 10.8052 13.8634 11.566 13.8634 12.5044V19.3137C5.74098 22.611 0 30.5695 0 39.8412C0 43.3658 0.851195 46.8739 2.46149 49.986C4.01843 52.9951 6.28836 55.6517 9.02568 57.6688C9.31772 57.8839 9.67093 58 10.0337 58H34.3878C34.7505 58 35.1037 57.8839 35.3957 57.6688C38.1331 55.6517 40.4029 52.995 41.9598 49.9859C43.5702 46.8737 44.4213 43.3658 44.4213 39.8412C44.4213 30.5696 38.6802 22.6114 30.5581 19.3139V12.5044C30.5581 11.566 29.7973 10.8052 28.8589 10.8052H28.4613V7.72805H37.313C37.0645 8.62467 36.931 9.56864 36.931 10.5434C36.931 16.357 41.6568 21.0869 47.4654 21.0869C53.274 21.0869 58 16.357 58 10.5434C58 4.72983 53.2742 0 47.4656 0V0ZM17.2617 18.7691V14.2037H27.1597V18.7691H17.2617ZM41.0231 39.8412C41.0231 42.8673 40.3228 45.7551 38.9417 48.4242C37.7066 50.8113 35.941 52.9371 33.8158 54.6017H10.6057C8.48069 52.9372 6.71497 50.8114 5.47987 48.4242C4.09874 45.755 3.39844 42.8673 3.39844 39.8412C3.39844 31.6989 8.63078 24.7535 15.9191 22.1676H28.5024C35.7908 24.7535 41.0231 31.6989 41.0231 39.8412ZM19.3584 10.8051V3.40467H25.063V10.8052H19.3584V10.8051ZM47.4656 17.6884C43.5309 17.6884 40.3297 14.4832 40.3297 10.5434C40.3297 6.60362 43.5308 3.39844 47.4656 3.39844C51.4005 3.39844 54.6016 6.60362 54.6016 10.5434C54.6016 14.4832 51.4003 17.6884 47.4656 17.6884Z"/>
</svg>
