<svg width="21" height="24" viewBox="0 0 21 24" xmlns="http://www.w3.org/2000/svg" id="profileIcon">
    <path d="M10.8275 11.5609C12.4158 11.5609 13.7911 10.9912 14.9148 9.86733C16.0385 8.74362 16.6082 7.36868 16.6082 5.78025C16.6082 4.19237 16.0385 2.81725 14.9146 1.69317C13.7907 0.569639 12.4156 0 10.8275 0C9.23907 0 7.86414 0.569639 6.74042 1.69335C5.6167 2.81707 5.04688 4.19218 5.04688 5.78025C5.04688 7.36868 5.6167 8.7438 6.7406 9.86751C7.8645 10.991 9.23962 11.5609 10.8275 11.5609Z"/>
    <path d="M20.9435 18.4549C20.9111 17.9872 20.8456 17.4771 20.7491 16.9384C20.6517 16.3957 20.5262 15.8826 20.3761 15.4137C20.221 14.929 20.0101 14.4504 19.7493 13.9917C19.4787 13.5156 19.1608 13.1011 18.8041 12.7599C18.4312 12.4031 17.9745 12.1161 17.4464 11.9069C16.9202 11.6987 16.337 11.5932 15.7131 11.5932C15.4681 11.5932 15.2312 11.6937 14.7736 11.9916C14.492 12.1753 14.1626 12.3877 13.7949 12.6226C13.4805 12.8229 13.0546 13.0106 12.5286 13.1805C12.0153 13.3466 11.4942 13.4308 10.9799 13.4308C10.4655 13.4308 9.94458 13.3466 9.43079 13.1805C8.90527 13.0108 8.47937 12.8231 8.16534 12.6228C7.80115 12.3901 7.47156 12.1777 7.18573 11.9915C6.7287 11.6935 6.49158 11.593 6.24658 11.593C5.62256 11.593 5.03955 11.6987 4.51349 11.907C3.98578 12.116 3.52893 12.4029 3.15558 12.7601C2.79907 13.1014 2.48102 13.5158 2.21075 13.9917C1.9502 14.4504 1.73926 14.9288 1.58398 15.4139C1.43402 15.8828 1.30859 16.3957 1.21118 16.9384C1.11469 17.4764 1.04913 17.9867 1.01672 18.4554C0.984863 18.9146 0.96875 19.3913 0.96875 19.8727C0.96875 21.1255 1.367 22.1397 2.15234 22.8877C2.92798 23.6258 3.95428 24.0002 5.20233 24.0002H16.7585C18.0065 24.0002 19.0325 23.6259 19.8083 22.8877C20.5938 22.1402 20.9921 21.1258 20.9921 19.8725C20.9919 19.3889 20.9756 18.9119 20.9435 18.4549Z"/>
</svg>

