<svg width="44" height="50" viewBox="0 0 44 50" xmlns="http://www.w3.org/2000/svg" id="qualityIcon">
    <path d="M43.2399 13.5661L43.2384 13.5272C43.2167 13.047 43.2022 12.5388 43.1934 11.9735C43.1526 9.21664 40.961 6.93622 38.2038 6.7821C32.455 6.46129 28.0079 4.58675 24.2081 0.883073L24.1757 0.852174C22.9363 -0.284221 21.0667 -0.284221 19.8269 0.852174L19.7945 0.883073C15.9947 4.58675 11.5475 6.46129 5.79878 6.78249C3.04191 6.93622 0.849988 9.21664 0.809171 11.9739C0.800778 12.5354 0.785901 13.0435 0.764157 13.5272L0.761869 13.6176C0.650098 19.4797 0.511244 26.7753 2.95188 33.3972C4.29389 37.0387 6.32635 40.2041 8.99244 42.8061C12.0289 45.7693 16.0061 48.1219 20.8134 49.798C20.9698 49.8526 21.1323 49.8968 21.2979 49.93C21.5313 49.9766 21.7663 49.9998 22.0013 49.9998C22.2363 49.9998 22.4716 49.9766 22.7047 49.93C22.8703 49.8968 23.0339 49.8522 23.1911 49.7973C27.9926 48.118 31.9656 45.7644 34.9994 42.8015C37.6644 40.1988 39.6968 37.0326 41.04 33.3903C43.4898 26.7486 43.3513 19.4392 43.2399 13.5661ZM38.2873 32.3752C35.7132 39.3546 30.4584 44.1477 22.2229 47.0278C22.1935 47.0377 22.1623 47.0465 22.1298 47.053C22.0448 47.0698 21.9582 47.0698 21.872 47.0526C21.8399 47.0461 21.8086 47.0377 21.7796 47.0278C13.5353 44.1531 8.27718 39.3626 5.70494 32.3828C3.45542 26.279 3.58283 19.5819 3.69536 13.6737L3.69613 13.6409C3.71901 13.1332 3.73427 12.6014 3.74266 12.017C3.76098 10.7929 4.73601 9.78007 5.96243 9.71178C9.2156 9.5302 12.0736 8.90154 14.6996 7.78994C17.3222 6.67987 19.6514 5.11509 21.8197 3.00633C21.9299 2.91325 22.073 2.91287 22.1829 3.00633C24.3515 5.11509 26.6808 6.67987 29.303 7.78994C31.929 8.90154 34.787 9.5302 38.0405 9.71178C39.2669 9.78007 40.242 10.7929 40.2599 12.0174C40.2687 12.6048 40.2839 13.1366 40.3068 13.6409C40.419 19.556 40.5433 26.2584 38.2873 32.3752Z"/>
    <path d="M22.0007 12.54C15.1297 12.54 9.54004 18.1301 9.54004 25.0007C9.54004 31.8718 15.1297 37.4618 22.0007 37.4618C28.8714 37.4618 34.4615 31.8718 34.4615 25.0007C34.4615 18.1301 28.8714 12.54 22.0007 12.54ZM22.0007 34.5276C16.7475 34.5276 12.4739 30.254 12.4739 25.0007C12.4739 19.7475 16.7475 15.4739 22.0007 15.4739C27.2536 15.4739 31.5272 19.7475 31.5272 25.0007C31.5272 30.254 27.2536 34.5276 22.0007 34.5276Z"/>
    <path d="M25.5825 21.1323L19.7949 26.9199L18.224 25.349C17.651 24.7761 16.7221 24.7761 16.1492 25.349C15.5766 25.922 15.5766 26.8509 16.1492 27.4235L18.7577 30.032C19.0441 30.3185 19.4195 30.4615 19.7949 30.4615C20.1702 30.4615 20.5456 30.3185 20.8321 30.032L27.6573 23.2067C28.2299 22.6337 28.2299 21.7049 27.6573 21.1323C27.0844 20.5589 26.1555 20.5589 25.5825 21.1323Z"/>
</svg>
