<svg width="18" height="18" viewBox="0 0 18 18" xmlns="http://www.w3.org/2000/svg" id="searchIcon">
    <path d="M11.5238 11.4286L17 17M13.3476 7.18095C13.3476 10.5943 10.5857 13.3619 7.17619 13.3619C6.36487 13.3617 5.56155 13.2016 4.81208 12.8909C4.06262 12.5802 3.38169 12.1249 2.80818 11.551C2.23466 10.9772 1.7798 10.296 1.46955 9.5463C1.1593 8.79665 0.99975 7.99322 1 7.18191C0.999625 6.37038 1.15911 5.56673 1.46935 4.81685C1.77959 4.06697 2.2345 3.38554 2.80812 2.81148C3.38173 2.23743 4.06281 1.78199 4.81245 1.47117C5.56209 1.16036 6.36562 1.00025 7.17714 1C10.5867 1 13.3486 3.76952 13.3486 7.18095H13.3476Z"/>
</svg>
