<svg xmlns="http://www.w3.org/2000/svg" width="43" height="43" viewBox="0 0 43 43">
    <g transform="translate(-22.375 -0.375)">
        <path d="M9,29.25H35.269v5.019H9Z" transform="translate(21.74 9.106)" fill="#eb7d00"/>
        <path d="M20.723,24.069A3.346,3.346,0,1,0,19.8,17.5L12.828,12.41l-.418.366,5.113,6.975a3.264,3.264,0,0,0-.146.972A3.343,3.343,0,0,0,20.723,24.069Z" transform="translate(23.191 1.191)" fill="#eb7d00"/>
        <path d="M24.875,3.375A21.424,21.424,0,0,0,7.933,38.01h6.078l.413-.412,2.284-2.278-2.367-2.361-2.284,2.268a16.406,16.406,0,0,1-3.638-8.762h3.225v-3.3H8.419A16.406,16.406,0,0,1,12.058,14.4l2.284,2.268,2.367-2.361-2.274-2.278a16.5,16.5,0,0,1,8.786-3.628v3.216h3.308V8.405a16.5,16.5,0,0,1,8.786,3.628l-2.274,2.278,2.367,2.361L37.692,14.4a16.406,16.406,0,0,1,3.638,8.762H38.106v3.3h3.225a16.406,16.406,0,0,1-3.638,8.762l-2.284-2.268-2.367,2.361L35.325,37.6l.413.412h6.078A21.424,21.424,0,0,0,24.875,3.375Z" transform="translate(19 -3)" fill="#eb7d00"/>
    </g>
</svg>
