<svg width="18" height="18" viewBox="0 0 18 18" xmlns="http://www.w3.org/2000/svg" id="starIcon">
    <path d="M17.9527 6.90408C17.8342 6.53961 17.5109 6.28156 17.1299 6.24709L11.9339 5.77536L9.88035 0.967661C9.72873 0.614445 9.38376 0.386475 8.99978 0.386475C8.6158 0.386475 8.27069 0.614445 8.12004 0.967661L6.06652 5.77536L0.869624 6.24709C0.488666 6.28225 0.166075 6.54029 0.0468714 6.90408C-0.0716456 7.26856 0.0378075 7.66833 0.325929 7.92102L4.25374 11.3652L3.09563 16.4659C3.0109 16.841 3.15647 17.2288 3.46766 17.4537C3.63493 17.5753 3.83145 17.636 4.02866 17.636C4.19813 17.636 4.36773 17.5909 4.51921 17.5003L8.99978 14.8212L13.4795 17.5003C13.8082 17.6967 14.2214 17.6787 14.5319 17.4537C14.8431 17.2288 14.9887 16.841 14.9039 16.4659L13.7458 11.3652L17.6736 7.92102C17.9616 7.66833 18.0712 7.26939 17.9527 6.90408Z"/>
</svg>
