<svg width="62" height="62" viewBox="0 0 62 62" xmlns="http://www.w3.org/2000/svg">
    <path d="M14.6875 20.5005H3.8125C2.81067 20.5005 2 21.3112 2 22.313V54.938C2 55.9398 2.81067 56.7505 3.8125 56.7505H14.6875C15.6893 56.7505 16.5 55.9398 16.5 54.938V22.313C16.5 21.3112 15.6893 20.5005 14.6875 20.5005ZM12.875 53.1255H5.625V24.1255H12.875V53.1255Z"/>
    <path d="M53.3058 24.1248H42.5972C41.6608 24.1248 41.1918 23.4999 41.0343 23.2309C40.8767 22.9636 40.5581 22.2503 41.0113 21.4326L44.7867 14.6339C45.6151 13.1453 45.7 11.3948 45.0221 9.83182C44.3442 8.26713 43.0061 7.13254 41.3511 6.72013L38.689 6.0546C38.0411 5.89176 37.3544 6.09885 36.903 6.59977L22.449 22.6574C20.9498 24.3265 20.125 26.4789 20.125 28.7197V44.0622C20.125 49.059 24.1907 53.1247 29.1875 53.1247L47.2187 53.123C51.2898 53.123 54.8847 50.3812 55.959 46.4571L59.8283 32.3252C59.9416 31.8314 60 31.3252 60 30.8189C60 27.1284 56.9963 24.1247 53.3058 24.1247L53.3058 24.1248ZM56.3131 31.4367L52.4615 45.4995C51.8172 47.8536 49.6613 49.4998 47.2187 49.4998H29.1875C26.1891 49.4998 23.75 47.0607 23.75 44.0623V28.7197C23.75 27.3745 24.2456 26.0824 25.1448 25.0823L38.8677 9.8354L40.4714 10.2354C41.0236 10.3735 41.4697 10.7523 41.6962 11.2744C41.9228 11.7948 41.8945 12.3771 41.6184 12.8745L37.8429 19.6732C36.8977 21.3742 36.9225 23.392 37.9102 25.07C38.8978 26.7479 40.6502 27.7498 42.5972 27.7498H53.3058C54.9979 27.7498 56.375 29.1269 56.375 30.819C56.375 31.0491 56.3485 31.281 56.3131 31.4367V31.4367Z"/>
</svg>

