<svg width="58" height="51" viewBox="0 0 58 51" xmlns="http://www.w3.org/2000/svg" id="thumbsUpIcon">
    <path d="M12.6875 14.5005H1.8125C0.81067 14.5005 0 15.3112 0 16.313V48.938C0 49.9398 0.81067 50.7505 1.8125 50.7505H12.6875C13.6893 50.7505 14.5 49.9398 14.5 48.938V16.313C14.5 15.3112 13.6893 14.5005 12.6875 14.5005ZM10.875 47.1255H3.625V18.1255H10.875V47.1255Z"/>
    <path d="M51.3058 18.1248H40.5972C39.6608 18.1248 39.1918 17.4999 39.0343 17.2309C38.8767 16.9636 38.5581 16.2503 39.0113 15.4326L42.7867 8.6339C43.6151 7.14531 43.7 5.39476 43.0221 3.83182C42.3442 2.26713 41.0061 1.13254 39.3511 0.72013L36.689 0.0546015C36.0411 -0.10824 35.3544 0.0988523 34.903 0.599769L20.449 16.6574C18.9498 18.3265 18.125 20.4789 18.125 22.7197V38.0622C18.125 43.059 22.1907 47.1247 27.1875 47.1247L45.2187 47.123C49.2898 47.123 52.8847 44.3812 53.959 40.4571L57.8283 26.3252C57.9416 25.8314 58 25.3252 58 24.8189C58 21.1284 54.9963 18.1247 51.3058 18.1247L51.3058 18.1248ZM54.3131 25.4367L50.4615 39.4995C49.8172 41.8536 47.6613 43.4998 45.2187 43.4998H27.1875C24.1891 43.4998 21.75 41.0607 21.75 38.0623V22.7197C21.75 21.3745 22.2456 20.0824 23.1448 19.0823L36.8677 3.8354L38.4714 4.23542C39.0236 4.37349 39.4697 4.75227 39.6962 5.27443C39.9228 5.79481 39.8945 6.37715 39.6184 6.87452L35.8429 13.6732C34.8977 15.3742 34.9225 17.392 35.9102 19.07C36.8978 20.7479 38.6502 21.7498 40.5972 21.7498H51.3058C52.9979 21.7498 54.375 23.1269 54.375 24.819C54.375 25.0491 54.3485 25.281 54.3131 25.4367V25.4367Z"/>
</svg>
