<svg xmlns="http://www.w3.org/2000/svg" width="50" height="43" viewBox="0 0 50 43">
    <path d="M48.539,21.955l-4.57-5.615a4.581,4.581,0,0,0-3.539-1.795H37.5V5.321A2.827,2.827,0,0,0,35,2.25H2.5A2.827,2.827,0,0,0,0,5.321v32.25c0,4.242,2.8,7.679,6.25,7.679a5.962,5.962,0,0,0,5-3.11,5.942,5.942,0,0,0,5,3.11c3.453,0,6.25-3.436,6.25-7.679a9.88,9.88,0,0,0-.125-1.536h12.75A9.009,9.009,0,0,0,35,37.571c0,4.242,2.8,7.679,6.25,7.679s6.25-3.436,6.25-7.679a9.881,9.881,0,0,0-.125-1.536H48.75A1.419,1.419,0,0,0,50,34.5V26.294A6.9,6.9,0,0,0,48.539,21.955ZM6.25,40.643a2.839,2.839,0,0,1-2.5-3.071A2.839,2.839,0,0,1,6.25,34.5a2.839,2.839,0,0,1,2.5,3.071A2.839,2.839,0,0,1,6.25,40.643Zm10,0a2.839,2.839,0,0,1-2.5-3.071,2.839,2.839,0,0,1,2.5-3.071,2.839,2.839,0,0,1,2.5,3.071A2.839,2.839,0,0,1,16.25,40.643Zm21.25-21.5h2.93a1.138,1.138,0,0,1,.883.451L44.7,23.75H37.5Zm3.75,21.5a2.839,2.839,0,0,1-2.5-3.071,2.839,2.839,0,0,1,2.5-3.071,2.839,2.839,0,0,1,2.5,3.071A2.839,2.839,0,0,1,41.25,40.643Z"
          transform="translate(0 -2.25)" fill="#eb7d00"/>
</svg>
