<svg width="16" height="16" viewBox="0 0 16 16" xmlns="http://www.w3.org/2000/svg" id="trashIcon">
    <path d="M12.758 3.07837L11.738 14.7026H4.25945L3.23958 3.07837L1.94727 3.19165L2.98577 15.0267C3.04042 15.5722 3.51373 15.9999 4.06358 15.9999H11.9339C12.4835 15.9999 12.957 15.5724 13.0125 15.0189L14.0504 3.19165L12.758 3.07837Z"/>
    <path d="M10.3789 0H5.62211C5.02598 0 4.54102 0.484969 4.54102 1.08109V3.13516H5.8383V1.29728H10.1626V3.13512H11.4599V1.08106C11.46 0.484969 10.975 0 10.3789 0Z"/>
    <path d="M14.9181 2.48657H1.0803C0.722016 2.48657 0.431641 2.77695 0.431641 3.13523C0.431641 3.49351 0.722016 3.78388 1.0803 3.78388H14.9181C15.2764 3.78388 15.5668 3.49351 15.5668 3.13523C15.5668 2.77695 15.2764 2.48657 14.9181 2.48657Z"/>
</svg>
