<svg width="62" height="44" viewBox="0 0 62 44" xmlns="http://www.w3.org/2000/svg" id="truckIcon">
    <path d="M46.8256 27.8613C42.5163 27.8613 39.0105 31.3671 39.0105 35.6765C39.0105 39.9858 42.5163 43.4916 46.8256 43.4916C51.1357 43.4916 54.6408 39.9858 54.6408 35.6765C54.6408 31.3671 51.135 27.8613 46.8256 27.8613ZM46.8256 39.5841C44.6707 39.5841 42.9181 37.8315 42.9181 35.6765C42.9181 33.5215 44.6707 31.7689 46.8256 31.7689C48.9806 31.7689 50.7332 33.5215 50.7332 35.6765C50.7332 37.8316 48.9806 39.5841 46.8256 39.5841Z"/>
    <path d="M20.124 27.8613C15.8146 27.8613 12.3088 31.3671 12.3088 35.6765C12.3088 39.9858 15.8146 43.4916 20.124 43.4916C24.4333 43.4916 27.9391 39.9858 27.9391 35.6765C27.9391 31.3671 24.4333 27.8613 20.124 27.8613ZM20.124 39.5841C17.969 39.5841 16.2164 37.8315 16.2164 35.6765C16.2164 33.5215 17.969 31.7689 20.124 31.7689C22.2784 31.7689 24.0316 33.5215 24.0316 35.6765C24.0316 37.8316 22.279 39.5841 20.124 39.5841Z"/>
    <path d="M52.0887 5.49193C51.7566 4.83222 51.0812 4.41602 50.3427 4.41602H40.0527V8.32359H49.1378L54.4579 18.9053L57.95 17.1494L52.0887 5.49193Z"/>
    <path d="M40.9643 33.7878H26.1807V37.6954H40.9643V33.7878Z"/>
    <path d="M14.2624 33.7878H7.48937C6.41018 33.7878 5.53564 34.6625 5.53564 35.7416C5.53564 36.8208 6.4103 37.6953 7.48937 37.6953H14.2625C15.3417 37.6953 16.2162 36.8206 16.2162 35.7416C16.2162 34.6624 15.3416 33.7878 14.2624 33.7878Z"/>
    <path d="M61.5896 21.8436L57.7465 16.894C57.3773 16.4172 56.8074 16.1385 56.2037 16.1385H42.0062V2.46203C42.0062 1.38284 41.1315 0.508301 40.0524 0.508301H7.48937C6.41018 0.508301 5.53564 1.38296 5.53564 2.46203C5.53564 3.54109 6.4103 4.41575 7.48937 4.41575H38.0986V18.0922C38.0986 19.1714 38.9732 20.0459 40.0523 20.0459H55.2469L58.0922 23.7112V33.7875H52.6867C51.6076 33.7875 50.733 34.6622 50.733 35.7412C50.733 36.8204 51.6077 37.695 52.6867 37.695H60.046C61.1252 37.695 61.9997 36.8203 61.9998 35.7412V23.0419C61.9998 22.6082 61.8552 22.1861 61.5896 21.8436Z"/>
    <path d="M14.1323 23.8887H5.14489C4.0657 23.8887 3.19116 24.7633 3.19116 25.8424C3.19116 26.9216 4.06582 27.7961 5.14489 27.7961H14.1322C15.2114 27.7961 16.086 26.9215 16.086 25.8424C16.0861 24.7633 15.2114 23.8887 14.1323 23.8887Z"/>
    <path d="M18.626 16.2036H1.95373C0.87466 16.2036 0 17.0783 0 18.1575C0 19.2366 0.87466 20.1112 1.95373 20.1112H18.626C19.7052 20.1112 20.5798 19.2365 20.5798 18.1575C20.5798 17.0784 19.7052 16.2036 18.626 16.2036Z"/>
    <path d="M21.8172 8.5188H5.14489C4.0657 8.5188 3.19116 9.39346 3.19116 10.4725C3.19116 11.5517 4.06582 12.4263 5.14489 12.4263H21.8172C22.8964 12.4263 23.7709 11.5516 23.7709 10.4725C23.771 9.39346 22.8964 8.5188 21.8172 8.5188Z"/>
</svg>
