<svg width="62" height="62" viewBox="0 0 62 62" xmlns="http://www.w3.org/2000/svg">
    <path d="M46.8256 36.8613C42.5163 36.8613 39.0105 40.3671 39.0105 44.6765C39.0105 48.9858 42.5163 52.4916 46.8256 52.4916C51.1357 52.4916 54.6408 48.9858 54.6408 44.6765C54.6408 40.3671 51.135 36.8613 46.8256 36.8613ZM46.8256 48.5841C44.6707 48.5841 42.9181 46.8315 42.9181 44.6765C42.9181 42.5215 44.6707 40.7689 46.8256 40.7689C48.9806 40.7689 50.7332 42.5215 50.7332 44.6765C50.7332 46.8316 48.9806 48.5841 46.8256 48.5841Z"/>
    <path d="M20.124 36.8613C15.8146 36.8613 12.3088 40.3671 12.3088 44.6765C12.3088 48.9858 15.8146 52.4916 20.124 52.4916C24.4333 52.4916 27.9391 48.9858 27.9391 44.6765C27.9391 40.3671 24.4333 36.8613 20.124 36.8613ZM20.124 48.5841C17.969 48.5841 16.2164 46.8315 16.2164 44.6765C16.2164 42.5215 17.969 40.7689 20.124 40.7689C22.2784 40.7689 24.0316 42.5215 24.0316 44.6765C24.0316 46.8316 22.279 48.5841 20.124 48.5841Z"/>
    <path d="M52.0887 14.4919C51.7566 13.8322 51.0812 13.416 50.3427 13.416H40.0527V17.3236H49.1378L54.4579 27.9053L57.95 26.1494L52.0887 14.4919Z"/>
    <path d="M40.9643 42.7878H26.1807V46.6954H40.9643V42.7878Z"/>
    <path d="M14.2624 42.7878H7.48937C6.41018 42.7878 5.53564 43.6625 5.53564 44.7416C5.53564 45.8208 6.4103 46.6953 7.48937 46.6953H14.2625C15.3417 46.6953 16.2162 45.8206 16.2162 44.7416C16.2162 43.6624 15.3416 42.7878 14.2624 42.7878Z"/>
    <path d="M61.5896 30.8436L57.7465 25.894C57.3773 25.4172 56.8074 25.1385 56.2037 25.1385H42.0062V11.462C42.0062 10.3828 41.1315 9.5083 40.0524 9.5083H7.48937C6.41018 9.5083 5.53564 10.383 5.53564 11.462C5.53564 12.5411 6.4103 13.4158 7.48937 13.4158H38.0986V27.0922C38.0986 28.1714 38.9732 29.0459 40.0523 29.0459H55.2469L58.0922 32.7112V42.7875H52.6867C51.6076 42.7875 50.733 43.6622 50.733 44.7412C50.733 45.8204 51.6077 46.695 52.6867 46.695H60.046C61.1252 46.695 61.9997 45.8203 61.9998 44.7412V32.0419C61.9998 31.6082 61.8552 31.1861 61.5896 30.8436Z"/>
    <path d="M14.1323 32.8887H5.14489C4.0657 32.8887 3.19116 33.7633 3.19116 34.8424C3.19116 35.9216 4.06582 36.7961 5.14489 36.7961H14.1322C15.2114 36.7961 16.086 35.9215 16.086 34.8424C16.0861 33.7633 15.2114 32.8887 14.1323 32.8887Z"/>
    <path d="M18.626 25.2036H1.95373C0.87466 25.2036 0 26.0783 0 27.1575C0 28.2366 0.87466 29.1112 1.95373 29.1112H18.626C19.7052 29.1112 20.5798 28.2365 20.5798 27.1575C20.5798 26.0784 19.7052 25.2036 18.626 25.2036Z"/>
    <path d="M21.8172 17.5188H5.14489C4.0657 17.5188 3.19116 18.3935 3.19116 19.4725C3.19116 20.5517 4.06582 21.4263 5.14489 21.4263H21.8172C22.8964 21.4263 23.7709 20.5516 23.7709 19.4725C23.771 18.3935 22.8964 17.5188 21.8172 17.5188Z"/>
</svg>

